# xmcd
#
# Track frame offsets: 
#        150
#        14758
#        27096
#        36625
#        43287
#        55088
#        69368
#        78610
#        94047
#        106535
#        117263
#        129440
#        149129
#        162467
#        175766
#        187725
#        197860
#
# Disc length: 2773 seconds
#
# Revision: 7
# Processed by: cddbd v1.5.2PL0 Copyright (c) Steve Scherf et al.
# Submitted via: ExactAudioCopy v1.3
#
DISCID=ef0ad311
DTITLE=Various Artist - The best of Country and Western
DYEAR=1996
DGENRE=Country
TTITLE0=John Denver - Take me home country roads
TTITLE1=Lynn Anderson - Stand by your man
TTITLE2=Jim Reeves - I'm getting better
TTITLE3=Don Williams - Lord I hope this day is good
TTITLE4=Billy Jo Spears - Ease the want in me
TTITLE5=Jerry Lee Lewis - Careless hands
TTITLE6=Loretta Lynn - First city
TTITLE7=Kenny Rogers - For the good times
TTITLE8=Jo Ann Houston - Blue, blue day
TTITLE9=Tom T. Hall - Fox on the run
TTITLE10=Billie Jo Spears - You never can tell
TTITLE11=Jerry Lee Lewis - Thirty nine and holding
TTITLE12=Lynn Anderson - Rose garden
TTITLE13=John Denver - Whispering Jesse
TTITLE14=Anne Murray - The last thing on my mind
TTITLE15=Jan Howard - I wish I could fall in love
TTITLE16=Don Gibson - Lonesome number one
EXTD=
EXTT0=
EXTT1=
EXTT2=
EXTT3=
EXTT4=
EXTT5=
EXTT6=
EXTT7=
EXTT8=
EXTT9=
EXTT10=
EXTT11=
EXTT12=
EXTT13=
EXTT14=
EXTT15=
EXTT16=
PLAYORDER=
